<svg width="382" height="209" viewBox="0 0 382 209" fill="none" xmlns="http://www.w3.org/2000/svg">
<path d="M361.4 0H20.6C9.22291 0 0 9.22291 0 20.6V188.4C0 199.777 9.22291 209 20.6 209H361.4C372.777 209 382 199.777 382 188.4V20.6C382 9.22291 372.777 0 361.4 0Z" fill="white"/>
<path d="M257.006 119.853C256.357 119.205 255.059 118.84 253.943 120.015C249.421 124.086 242.444 123.721 238.367 119.205C238.225 119.043 238.083 118.88 237.941 118.698C242.403 117.604 253.355 114.202 257.553 110.759C261.042 107.903 262.766 104.075 259.277 99.2137C255.992 94.5957 251.104 93.583 246.581 93.583C246.5 93.583 246.399 93.583 246.317 93.583C242.2 93.6438 238.246 95.0818 235.061 97.6946C233.013 99.3757 231.35 101.482 230.194 103.852C225.813 112.885 229.585 123.782 238.651 128.157C241.125 129.352 243.843 129.98 246.601 129.98C249.481 129.98 254.187 129.028 258.446 125.585L259.439 124.592C260.048 123.883 260.007 122.83 259.358 122.162L257.006 119.853ZM239.138 103.649C241.105 101.867 243.904 100.55 246.764 100.55C248.67 100.55 250.698 100.733 251.834 102.11C252.422 102.839 252.321 104.054 251.773 104.905C249.846 107.882 238.002 110.819 235.548 111.224C235.71 108.308 236.988 105.594 239.138 103.649Z" fill="#0A0F20"/>
<path d="M213.908 102.292C213.908 91.0512 202.611 93.0159 194.58 95.5477V81.0254C194.58 79.9114 193.667 79 192.552 79H189.002C187.887 79 186.974 79.9114 186.974 81.0254V122.162C186.974 123.458 187.725 125.544 189.327 126.415C192.187 127.954 213.908 136.015 213.908 121.291V102.292ZM206.282 117.766C206.282 119.346 205.694 120.784 204.376 121.736C201.901 123.498 197.257 121.554 195.979 120.825C195.269 120.42 194.58 119.832 194.58 118.982V104.601C194.58 103.73 195.269 103.163 195.979 102.758C197.257 102.029 201.922 100.085 204.376 101.847C205.694 102.778 206.282 104.237 206.282 105.817V117.766Z" fill="#0A0F20"/>
<path d="M222.872 130H219.364C218.248 130 217.335 129.089 217.335 127.975V81.0457C217.335 79.9317 218.248 79.0203 219.364 79.0203H222.872C223.988 79.0203 224.9 79.9317 224.9 81.0457V127.975C224.9 129.089 223.988 130 222.872 130Z" fill="#0A0F20"/>
<path d="M282.114 93.6033C277.571 93.5628 264.652 94.1704 264.652 103.062C264.652 105.411 264.652 128.218 264.652 128.238C264.733 129.23 265.544 129.98 266.538 129.98H270.331C271.365 129.98 272.217 129.149 272.217 128.096V105.31C272.217 103.791 272.318 100.834 279.66 100.834C280.532 100.834 281.019 100.571 281.546 99.9023C282.337 98.9099 283.067 97.8567 283.696 96.7427C284.609 95.2236 283.392 93.6033 282.114 93.6033Z" fill="#0A0F20"/>
<path d="M133.614 101.847C132.681 102.191 132.134 103.143 132.316 104.115C132.478 105.087 132.58 106.06 132.58 107.032C132.58 115.478 126.394 122.303 118.768 122.303C111.143 122.303 104.957 115.457 104.957 107.032C104.936 104.095 105.727 101.199 107.208 98.6465C107.695 97.8566 107.573 96.8236 106.904 96.1755L104.653 93.9475C103.862 93.1576 102.584 93.1576 101.793 93.9475C101.671 94.0691 101.57 94.1906 101.489 94.3324C99.1766 98.1604 97.98 102.556 98.0003 107.032C98.0003 119.711 107.289 130 118.748 130C130.207 130 139.496 119.711 139.496 107.032C139.496 105.472 139.354 103.913 139.07 102.394C138.867 101.3 137.812 100.55 136.717 100.753C136.596 100.773 136.494 100.814 136.373 100.854L133.614 101.847Z" fill="#0A0F20"/>
<path d="M123.676 110.313C122.622 112.926 119.661 114.202 117.024 113.169C115.402 112.521 114.205 111.083 113.901 109.361C113.86 109.118 113.82 108.855 113.82 108.612C113.799 107.943 113.313 107.356 112.643 107.234L110.21 106.809C109.338 106.647 108.486 107.234 108.324 108.125C108.303 108.207 108.303 108.288 108.303 108.389C108.303 108.409 108.303 108.429 108.303 108.429C108.303 114.283 113.069 119.042 118.931 119.042C123.413 119.042 127.429 116.227 128.929 112.014C129.213 111.164 128.767 110.252 127.915 109.969C127.834 109.948 127.753 109.928 127.672 109.908L125.238 109.483C124.569 109.341 123.92 109.685 123.676 110.313Z" fill="#0A0F20"/>
<path d="M170.202 94.3325L163.833 96.925C160.933 91.6184 153.916 94.3932 153.713 94.5147L144.586 97.8162C143.775 98.0592 142.923 99.0314 142.923 100.328V127.954C142.923 129.068 143.836 129.98 144.951 129.98H148.501C149.616 129.98 150.529 129.068 150.529 127.954V103.528C150.529 102.657 151.218 102.07 151.928 101.664C153.206 100.935 155.883 99.396 157.526 100.611C158.824 101.583 159.432 103.001 159.432 104.601V127.954C159.432 129.068 160.345 129.98 161.46 129.98H165.01C166.125 129.98 167.038 129.068 167.038 127.954V103.528C167.038 102.657 167.727 102.07 168.437 101.664C169.715 100.935 172.392 99.396 174.035 100.611C175.252 101.523 175.921 102.596 175.921 103.953V127.934C175.921 129.048 176.834 129.96 177.949 129.96H181.498C182.614 129.96 183.527 129.048 183.527 127.934V103.528C183.527 98.7074 179.288 91.2133 170.202 94.3325Z" fill="#0A0F20"/>
</svg>
