<svg width="382" height="209" viewBox="0 0 382 209" fill="none" xmlns="http://www.w3.org/2000/svg">
<path d="M361.4 0H20.6C9.22294 0 0 9.22291 0 20.6V188.4C0 199.777 9.22294 209 20.6 209H361.4C372.777 209 382 199.777 382 188.4V20.6C382 9.22291 372.777 0 361.4 0Z" fill="#1A5CFF"/>
<path d="M256.006 119.853C255.357 119.205 254.059 118.84 252.943 120.015C248.421 124.086 241.444 123.721 237.367 119.205C237.225 119.043 237.083 118.88 236.941 118.698C241.403 117.604 252.355 114.202 256.553 110.759C260.042 107.903 261.766 104.075 258.277 99.2137C254.992 94.5957 250.104 93.583 245.581 93.583C245.5 93.583 245.399 93.583 245.317 93.583C241.2 93.6438 237.246 95.0818 234.061 97.6946C232.013 99.3757 230.35 101.482 229.194 103.852C224.813 112.885 228.585 123.782 237.651 128.157C240.125 129.352 242.843 129.98 245.601 129.98C248.481 129.98 253.187 129.028 257.446 125.585L258.439 124.592C259.048 123.883 259.007 122.83 258.358 122.162L256.006 119.853ZM238.138 103.649C240.105 101.867 242.904 100.55 245.764 100.55C247.67 100.55 249.698 100.733 250.834 102.11C251.422 102.839 251.321 104.054 250.773 104.905C248.846 107.882 237.002 110.819 234.548 111.224C234.71 108.308 235.988 105.594 238.138 103.649Z" fill="white"/>
<path d="M212.908 102.292C212.908 91.0512 201.611 93.0159 193.58 95.5477V81.0254C193.58 79.9114 192.667 79 191.552 79H188.002C186.887 79 185.974 79.9114 185.974 81.0254V122.162C185.974 123.458 186.725 125.544 188.327 126.415C191.187 127.954 212.908 136.015 212.908 121.291V102.292ZM205.282 117.766C205.282 119.346 204.694 120.784 203.376 121.736C200.901 123.498 196.257 121.554 194.979 120.825C194.269 120.42 193.58 119.832 193.58 118.982V104.601C193.58 103.73 194.269 103.163 194.979 102.758C196.257 102.029 200.922 100.085 203.376 101.847C204.694 102.778 205.282 104.237 205.282 105.817V117.766Z" fill="white"/>
<path d="M221.872 130H218.364C217.248 130 216.335 129.089 216.335 127.975V81.0457C216.335 79.9317 217.248 79.0203 218.364 79.0203H221.872C222.988 79.0203 223.9 79.9317 223.9 81.0457V127.975C223.9 129.089 222.988 130 221.872 130Z" fill="white"/>
<path d="M281.114 93.6033C276.571 93.5628 263.652 94.1704 263.652 103.062C263.652 105.411 263.652 128.218 263.652 128.238C263.733 129.23 264.544 129.98 265.538 129.98H269.331C270.365 129.98 271.217 129.149 271.217 128.096V105.31C271.217 103.791 271.318 100.834 278.66 100.834C279.532 100.834 280.019 100.571 280.546 99.9023C281.337 98.9099 282.067 97.8567 282.696 96.7427C283.609 95.2236 282.392 93.6033 281.114 93.6033Z" fill="white"/>
<path d="M132.614 101.847C131.681 102.191 131.134 103.143 131.316 104.115C131.478 105.087 131.58 106.06 131.58 107.032C131.58 115.478 125.394 122.303 117.768 122.303C110.143 122.303 103.957 115.457 103.957 107.032C103.936 104.095 104.727 101.199 106.208 98.6465C106.695 97.8566 106.573 96.8236 105.904 96.1755L103.653 93.9475C102.862 93.1576 101.584 93.1576 100.793 93.9475C100.671 94.0691 100.57 94.1906 100.489 94.3324C98.1766 98.1604 96.98 102.556 97.0003 107.032C97.0003 119.711 106.289 130 117.748 130C129.207 130 138.496 119.711 138.496 107.032C138.496 105.472 138.354 103.913 138.07 102.394C137.867 101.3 136.812 100.55 135.717 100.753C135.596 100.773 135.494 100.814 135.373 100.854L132.614 101.847Z" fill="white"/>
<path d="M122.676 110.313C121.622 112.926 118.661 114.202 116.024 113.169C114.402 112.521 113.205 111.083 112.901 109.361C112.86 109.118 112.82 108.855 112.82 108.612C112.799 107.943 112.313 107.356 111.643 107.234L109.21 106.809C108.338 106.647 107.486 107.234 107.324 108.125C107.303 108.207 107.303 108.288 107.303 108.389C107.303 108.409 107.303 108.429 107.303 108.429C107.303 114.283 112.069 119.042 117.931 119.042C122.413 119.042 126.429 116.227 127.929 112.014C128.213 111.164 127.767 110.252 126.915 109.969C126.834 109.948 126.753 109.928 126.672 109.908L124.238 109.483C123.569 109.341 122.92 109.685 122.676 110.313Z" fill="url(#paint0_linear_1_23)"/>
<path d="M169.202 94.3325L162.833 96.925C159.933 91.6184 152.916 94.3932 152.713 94.5147L143.586 97.8162C142.775 98.0592 141.923 99.0314 141.923 100.328V127.954C141.923 129.068 142.836 129.98 143.951 129.98H147.501C148.616 129.98 149.529 129.068 149.529 127.954V103.528C149.529 102.657 150.218 102.07 150.928 101.664C152.206 100.935 154.883 99.396 156.526 100.611C157.824 101.583 158.432 103.001 158.432 104.601V127.954C158.432 129.068 159.345 129.98 160.46 129.98H164.01C165.125 129.98 166.038 129.068 166.038 127.954V103.528C166.038 102.657 166.727 102.07 167.437 101.664C168.715 100.935 171.392 99.396 173.035 100.611C174.252 101.523 174.921 102.596 174.921 103.953V127.934C174.921 129.048 175.834 129.96 176.949 129.96H180.498C181.614 129.96 182.527 129.048 182.527 127.934V103.528C182.527 98.7074 178.288 91.2133 169.202 94.3325Z" fill="white"/>
<defs>
<linearGradient id="paint0_linear_1_23" x1="107.299" y1="112.895" x2="128.019" y2="112.895" gradientUnits="userSpaceOnUse">
<stop stop-color="#8BBCF8"/>
<stop offset="1" stop-color="#F8C4B8"/>
</linearGradient>
</defs>
</svg>
