<svg width="383" height="210" viewBox="0 0 383 210" fill="none" xmlns="http://www.w3.org/2000/svg">
<path d="M361.9 0.5H21.1C9.72293 0.5 0.5 9.72291 0.5 21.1V188.9C0.5 200.277 9.72293 209.5 21.1 209.5H361.9C373.277 209.5 382.5 200.277 382.5 188.9V21.1C382.5 9.72291 373.277 0.5 361.9 0.5Z" fill="#0A0F20" stroke="#273044" stroke-miterlimit="10"/>
<path d="M257.505 120.353C256.856 119.705 255.558 119.34 254.443 120.515C249.92 124.586 242.943 124.221 238.867 119.705C238.725 119.543 238.583 119.38 238.441 119.198C242.903 118.104 253.855 114.702 258.053 111.259C261.541 108.403 263.265 104.575 259.777 99.7137C256.491 95.0957 251.604 94.083 247.081 94.083C247 94.083 246.898 94.083 246.817 94.083C242.7 94.1438 238.745 95.5818 235.561 98.1946C233.513 99.8757 231.85 101.982 230.694 104.352C226.313 113.385 230.085 124.282 239.151 128.657C241.625 129.852 244.343 130.48 247.101 130.48C249.981 130.48 254.686 129.528 258.945 126.085L259.939 125.092C260.548 124.383 260.507 123.33 259.858 122.662L257.505 120.353ZM239.638 104.149C241.605 102.367 244.404 101.05 247.263 101.05C249.17 101.05 251.198 101.233 252.334 102.61C252.922 103.339 252.821 104.554 252.273 105.405C250.346 108.382 238.502 111.319 236.048 111.724C236.21 108.808 237.488 106.094 239.638 104.149Z" fill="white"/>
<path d="M214.408 102.792C214.408 91.5512 203.111 93.5159 195.08 96.0477V81.5254C195.08 80.4114 194.167 79.5 193.051 79.5H189.502C188.387 79.5 187.474 80.4114 187.474 81.5254V122.662C187.474 123.958 188.225 126.044 189.827 126.915C192.686 128.454 214.408 136.515 214.408 121.791V102.792ZM206.782 118.266C206.782 119.846 206.194 121.284 204.875 122.236C202.401 123.998 197.757 122.054 196.479 121.325C195.769 120.92 195.08 120.332 195.08 119.482V105.101C195.08 104.23 195.769 103.663 196.479 103.258C197.757 102.529 202.421 100.585 204.875 102.347C206.194 103.278 206.782 104.737 206.782 106.317V118.266Z" fill="white"/>
<path d="M223.372 130.5H219.863C218.748 130.5 217.835 129.589 217.835 128.475V81.5457C217.835 80.4317 218.748 79.5203 219.863 79.5203H223.372C224.487 79.5203 225.4 80.4317 225.4 81.5457V128.475C225.4 129.589 224.487 130.5 223.372 130.5Z" fill="white"/>
<path d="M282.614 94.1033C278.071 94.0628 265.152 94.6704 265.152 103.562C265.152 105.911 265.152 128.718 265.152 128.738C265.233 129.73 266.044 130.48 267.038 130.48H270.83C271.865 130.48 272.717 129.649 272.717 128.596V105.81C272.717 104.291 272.818 101.334 280.16 101.334C281.032 101.334 281.519 101.071 282.046 100.402C282.837 99.4099 283.567 98.3567 284.196 97.2427C285.108 95.7236 283.892 94.1033 282.614 94.1033Z" fill="white"/>
<path d="M134.114 102.347C133.181 102.691 132.633 103.643 132.816 104.615C132.978 105.587 133.08 106.56 133.08 107.532C133.08 115.978 126.894 122.803 119.268 122.803C111.642 122.803 105.457 115.957 105.457 107.532C105.436 104.595 106.227 101.699 107.708 99.1465C108.194 98.3566 108.073 97.3236 107.404 96.6755L105.152 94.4475C104.361 93.6576 103.084 93.6576 102.293 94.4475C102.171 94.5691 102.07 94.6906 101.988 94.8324C99.6763 98.6604 98.4797 103.056 98.5 107.532C98.5 120.211 107.789 130.5 119.248 130.5C130.707 130.5 139.996 120.211 139.996 107.532C139.996 105.972 139.854 104.413 139.57 102.894C139.367 101.8 138.312 101.05 137.217 101.253C137.095 101.273 136.994 101.314 136.872 101.354L134.114 102.347Z" fill="white"/>
<path d="M124.176 110.813C123.122 113.426 120.161 114.702 117.524 113.669C115.901 113.021 114.705 111.583 114.401 109.861C114.36 109.618 114.319 109.355 114.319 109.112C114.299 108.443 113.812 107.856 113.143 107.734L110.709 107.309C109.837 107.147 108.986 107.734 108.823 108.625C108.803 108.707 108.803 108.788 108.803 108.889C108.803 108.909 108.803 108.929 108.803 108.929C108.803 114.783 113.569 119.542 119.43 119.542C123.913 119.542 127.928 116.727 129.429 112.514C129.713 111.664 129.267 110.752 128.415 110.469C128.334 110.448 128.253 110.428 128.172 110.408L125.738 109.983C125.069 109.841 124.42 110.185 124.176 110.813Z" fill="url(#paint0_linear_1_13)"/>
<path d="M170.701 94.8325L164.333 97.425C161.433 92.1184 154.416 94.8932 154.213 95.0147L145.086 98.3162C144.275 98.5592 143.423 99.5314 143.423 100.828V128.454C143.423 129.568 144.336 130.48 145.451 130.48H149C150.116 130.48 151.029 129.568 151.029 128.454V104.028C151.029 103.157 151.718 102.57 152.428 102.164C153.706 101.435 156.383 99.896 158.026 101.111C159.324 102.083 159.932 103.501 159.932 105.101V128.454C159.932 129.568 160.845 130.48 161.96 130.48H165.509C166.625 130.48 167.538 129.568 167.538 128.454V104.028C167.538 103.157 168.227 102.57 168.937 102.164C170.215 101.435 172.892 99.896 174.535 101.111C175.752 102.023 176.421 103.096 176.421 104.453V128.434C176.421 129.548 177.333 130.46 178.449 130.46H181.998C183.114 130.46 184.026 129.548 184.026 128.434V104.028C184.026 99.2074 179.788 91.7133 170.701 94.8325Z" fill="white"/>
<defs>
<linearGradient id="paint0_linear_1_13" x1="108.798" y1="113.395" x2="129.519" y2="113.395" gradientUnits="userSpaceOnUse">
<stop stop-color="#8BBCF8"/>
<stop offset="1" stop-color="#F8C4B8"/>
</linearGradient>
</defs>
</svg>
