<svg width="120" height="120" viewBox="94 87 50 50" fill="none" xmlns="http://www.w3.org/2000/svg">
<path d="M134.114 102.347C133.181 102.691 132.633 103.643 132.816 104.615C132.978 105.587 133.08 106.56 133.08 107.532C133.08 115.978 126.894 122.803 119.268 122.803C111.642 122.803 105.457 115.957 105.457 107.532C105.436 104.595 106.227 101.699 107.708 99.1465C108.194 98.3566 108.073 97.3236 107.404 96.6755L105.152 94.4475C104.361 93.6576 103.084 93.6576 102.293 94.4475C102.171 94.5691 102.07 94.6906 101.988 94.8324C99.6763 98.6604 98.4797 103.056 98.5 107.532C98.5 120.211 107.789 130.5 119.248 130.5C130.707 130.5 139.996 120.211 139.996 107.532C139.996 105.972 139.854 104.413 139.57 102.894C139.367 101.8 138.312 101.05 137.217 101.253C137.095 101.273 136.994 101.314 136.872 101.354L134.114 102.347Z" fill="white"/>
<path d="M124.176 110.813C123.122 113.426 120.161 114.702 117.524 113.669C115.901 113.021 114.705 111.583 114.401 109.861C114.36 109.618 114.319 109.355 114.319 109.112C114.299 108.443 113.812 107.856 113.143 107.734L110.709 107.309C109.837 107.147 108.986 107.734 108.823 108.625C108.803 108.707 108.803 108.788 108.803 108.889C108.803 108.909 108.803 108.929 108.803 108.929C108.803 114.783 113.569 119.542 119.43 119.542C123.913 119.542 127.928 116.727 129.429 112.514C129.713 111.664 129.267 110.752 128.415 110.469C128.334 110.448 128.253 110.428 128.172 110.408L125.738 109.983C125.069 109.841 124.42 110.185 124.176 110.813Z" fill="url(#umbler-symbol-grad)"/>
<defs>
<linearGradient id="umbler-symbol-grad" x1="108.798" y1="113.395" x2="129.519" y2="113.395" gradientUnits="userSpaceOnUse">
<stop stop-color="#8BBCF8"/>
<stop offset="1" stop-color="#F8C4B8"/>
</linearGradient>
</defs>
</svg>
