<svg xmlns="http://www.w3.org/2000/svg" viewBox="0 0 48 48">
  <!-- Fundo escuro arredondado -->
  <rect width="48" height="48" rx="10" fill="#0A0F20"/>
  <!--
    Símbolo Umbler centrado.
    viewBox "0 14 42 37" recorta a área visível dos paths originais
    (coordenadas y vão de 14 a 51); o nested svg mapeia para 38×34px
    com padding de 5px horizontal e 7px vertical dentro do favicon 48×48.
  -->
  <svg x="5" y="7" width="38" height="34" viewBox="0 14 42 37">
    <defs>
      <linearGradient id="u-grad" x1="10.2986" y1="33.8951" x2="31.0193" y2="33.8951" gradientUnits="userSpaceOnUse">
        <stop stop-color="#8BBCF8"/>
        <stop offset="1" stop-color="#F8C4B8"/>
      </linearGradient>
    </defs>
    <path d="M35.6143 22.8467C34.6813 23.191 34.1337 24.1429 34.3162 25.1151C34.4785 26.0873 34.5799 27.0595 34.5799 28.0317C34.5799 36.4777 28.3941 43.3034 20.7683 43.3034C13.1426 43.3034 6.95675 36.4575 6.95675 28.0317C6.93647 25.0949 7.72744 22.1985 9.20797 19.6465C9.69473 18.8566 9.57304 17.8236 8.90375 17.1755L6.65253 14.9475C5.86156 14.1576 4.58383 14.1576 3.79286 14.9475C3.67117 15.0691 3.56977 15.1906 3.48864 15.3324C1.17657 19.1604 -0.0200277 23.5556 0.000253575 28.0317C0.000253575 40.7108 9.2891 51 20.748 51C32.207 51 41.4958 40.7108 41.4958 28.0317C41.4958 26.4722 41.3539 24.9126 41.0699 23.3935C40.8671 22.2998 39.8125 21.5504 38.7173 21.7529C38.5956 21.7732 38.4942 21.8137 38.3725 21.8542L35.6143 22.8467Z" fill="white"/>
    <path d="M25.6765 31.3129C24.6218 33.9257 21.6608 35.2017 19.0242 34.1688C17.4017 33.5206 16.2051 32.0826 15.9009 30.361C15.8603 30.1179 15.8197 29.8546 15.8197 29.6116C15.7995 28.9432 15.3127 28.3558 14.6434 28.2343L12.2097 27.809C11.3376 27.6469 10.4858 28.2343 10.3235 29.1255C10.3032 29.2065 10.3032 29.2875 10.3032 29.3888C10.3032 29.4091 10.3032 29.4293 10.3032 29.4293C10.3032 35.2828 15.0693 40.0425 20.9306 40.0425C25.4128 40.0425 29.4285 37.2272 30.9293 33.0143C31.2133 32.1636 30.7671 31.2522 29.9153 30.9686C29.8341 30.9484 29.753 30.9281 29.6719 30.9079L27.2381 30.4825C26.5688 30.3407 25.9198 30.6851 25.6765 31.3129Z" fill="url(#u-grad)"/>
  </svg>
</svg>
